<svg viewBox="0 0 25.400003 25.39999" class="w-5 h-5 fill-current" xmlns="http://www.w3.org/2000/svg">
    <g transform="translate(-184.60577,-131.23333)">
        <g transform="matrix(0.61537888,0,0,0.61537888,490.03082,20.980246)">
            <path fill="currentColor" d="m -476.94308,181.83669 v 1.05893 l 0.43499,6.90526 -5.7632,-3.82926 -0.91617,-0.52904 -1.26046,2.18251 0.91616,0.52904 6.1982,3.07601 -6.1982,3.07684 -0.91616,0.52904 1.26046,2.18251 0.91617,-0.52904 5.7632,-3.82926 -0.43499,6.9061 v 1.05809 h 2.52093 v -1.05809 l -0.43499,-6.9061 5.7632,3.82926 0.91617,0.52904 1.26046,-2.18251 -0.917,-0.52904 -6.1982,-3.07684 6.1982,-3.07601 0.917,-0.52904 -1.26046,-2.18251 -0.91617,0.52904 -5.7632,3.82926 0.43499,-6.90526 v -1.05893 z m -9.10625,15.77387 v 1.05808 l 0.43499,6.9061 -5.76404,-3.82926 -0.91617,-0.52988 -1.26046,2.18335 0.91701,0.52904 6.19819,3.07601 -6.19819,3.07684 -0.91701,0.52904 1.26046,2.18251 0.91617,-0.52904 5.76404,-3.82926 -0.43499,6.90526 v 1.05893 h 2.52009 v -1.05893 l -0.43499,-6.9061 5.76321,3.8301 0.917,0.52904 1.25963,-2.18251 -0.91617,-0.52904 -6.19819,-3.076 6.19819,-3.07685 0.91617,-0.52904 -1.25963,-2.18335 -0.917,0.52988 -5.76321,3.82926 0.43499,-6.9061 v -1.05808 z m 18.21334,0 v 1.05808 l 0.43499,6.9061 -5.7632,-3.82926 -0.91701,-0.52988 -1.25963,2.18335 0.91617,0.52904 6.19819,3.07601 -6.19819,3.07684 -0.91617,0.52904 1.25963,2.18251 0.91701,-0.52904 5.7632,-3.82926 -0.43499,6.90526 v 1.05893 h 2.52009 v -1.05893 l -0.43499,-6.9061 5.7632,3.8301 0.91701,0.52904 1.26046,-2.18251 -0.91701,-0.52904 -6.19819,-3.076 6.19819,-3.07685 0.91701,-0.52904 -1.26046,-2.18335 -0.91701,0.52988 -5.7632,3.82926 0.43499,-6.9061 v -1.05808 z" />
        </g>
    </g>
</svg>
